<?xml version="1.0" encoding="UTF-8" standalone="no"?>
<!-- Created with Inkscape (http://www.inkscape.org/) -->

<svg
   width="280.76093mm"
   height="187.17395mm"
   viewBox="0 0 280.76093 187.17395"
   version="1.1"
   id="svg1"
   xml:space="preserve"
   xmlns="http://www.w3.org/2000/svg"
   xmlns:svg="http://www.w3.org/2000/svg"><defs
     id="defs1" /><g
     id="layer1"
     transform="translate(29.852197,-154.74078)"><path
       style="fill:#4d4df5;fill-opacity:1"
       d="M -29.852199,248.32776 V 154.74078 H 110.52827 250.90873 v 93.58698 93.58696 H 110.52827 -29.852199 Z m 105.154128,24.42562 c 0.696759,-0.29688 1.271389,-0.91091 1.561562,-1.66864 0.115499,-0.3016 0.543926,-2.60471 0.952062,-5.11803 0.408135,-2.51333 1.439449,-8.8469 2.29181,-14.07461 0.85236,-5.22771 1.534652,-9.91619 1.516203,-10.41886 -0.0221,-0.60202 0.08427,-1.13227 0.311648,-1.55369 0.506195,-0.93814 0.479782,-3.12511 -0.04982,-4.12517 -0.459069,-0.86688 -1.554071,-1.90917 -2.353661,-2.24037 -0.482635,-0.19991 -0.548705,-0.30751 -0.479281,-0.78053 0.108852,-0.74166 -0.282708,-2.64799 -0.71993,-3.50501 -0.57157,-1.12037 -1.567876,-2.0895 -2.761058,-2.68574 -0.930947,-0.4652 -1.325368,-0.55499 -2.437824,-0.55499 h -1.327184 l -0.125568,-0.59406 c -0.384351,-1.81835 -2.188103,-3.98475 -4.013541,-4.82046 -2.197611,-1.0061 -4.434925,-0.98598 -6.645467,0.0598 -0.965324,0.45667 -2.401586,1.69543 -3.001703,2.58894 -0.288321,0.42928 -0.29823,0.43045 -1.159193,0.13709 -1.225353,-0.41752 -3.119368,-0.38164 -4.360143,0.0826 -1.983614,0.74217 -3.832713,2.97916 -4.061859,4.91394 -0.10673,0.90116 -0.127353,0.92715 -1.083051,1.36468 -3.466643,1.58708 -4.920908,5.95122 -3.154553,9.46658 0.439021,0.87373 0.429233,1.05831 -0.05612,1.05831 -0.218283,0 -0.5473,0.13613 -0.731149,0.30251 -0.58628,0.53057 -0.659988,-0.0284 2.12928,16.14832 0.563366,3.26732 1.312544,7.62679 1.664839,9.68771 0.352296,2.06093 0.767206,4.13899 0.922023,4.61792 0.283241,0.87622 1.041586,1.64595 1.804103,1.8312 0.201066,0.0489 5.858682,0.0984 12.572481,0.11001 9.968809,0.0173 12.31475,-0.0247 12.795095,-0.22942 z m -23.941853,-2.45555 c -0.531515,-0.0386 -0.79576,-0.15108 -0.858852,-0.36557 -0.08333,-0.28329 -1.331112,-7.50576 -3.49564,-20.2336 -0.461615,-2.71439 -0.918392,-5.29018 -1.015059,-5.72399 -0.09667,-0.4338 -0.12823,-0.86564 -0.07014,-0.95963 0.169256,-0.27386 5.562197,-0.21899 5.659586,0.0576 0.04425,0.12566 0.331825,2.86062 0.639055,6.07767 0.30723,3.21705 0.891452,9.20807 1.298271,13.31338 0.406819,4.10531 0.693519,7.58447 0.63711,7.73147 -0.102031,0.26589 -0.397717,0.27675 -2.794332,0.10268 z m 5.653449,-0.15324 c -0.09605,-0.18665 -0.225846,-0.91514 -0.288445,-1.61887 -0.0626,-0.70373 -0.645924,-6.70158 -1.296275,-13.32855 -0.650352,-6.62698 -1.140188,-12.11745 -1.088526,-12.20104 0.05166,-0.0836 1.569653,-0.15199 3.373312,-0.15199 h 3.279379 v 13.70903 13.70903 h -1.348054 c -0.74143,0 -1.597514,0.0499 -1.902409,0.11087 -0.427408,0.0855 -0.594344,0.0332 -0.728982,-0.22848 z m 6.797651,0.13284 c -0.04202,-0.0419 -0.0764,-6.23151 -0.0764,-13.75472 v -13.67857 h 3.27938 c 1.803659,0 3.320621,0.0667 3.371027,0.14829 0.05041,0.0816 0.0182,0.92467 -0.07156,1.87357 -0.08976,0.9489 -0.329946,3.65825 -0.533735,6.02077 -1.843851,21.37577 -1.636593,19.3682 -2.003341,19.40498 -0.673407,0.0675 -3.894938,0.0559 -3.96537,-0.0143 z m 7.122678,0.023 c -0.14322,-0.0923 0.137108,-3.99349 0.9747,-13.56442 0.646657,-7.38917 1.208125,-13.53767 1.247708,-13.66333 0.05353,-0.16996 0.802901,-0.22849 2.925427,-0.22849 h 2.85346 l -0.100302,0.50267 c -0.05517,0.27646 -0.304846,1.7776 -0.554844,3.33586 -0.249998,1.55826 -0.701815,4.3549 -1.004037,6.21476 -0.302222,1.85986 -0.762458,4.69763 -1.022748,6.30616 -0.26029,1.60852 -0.76016,4.69218 -1.110822,6.85256 -0.350662,2.16039 -0.696022,3.98123 -0.767466,4.04632 -0.19245,0.17533 -3.207087,0.34872 -3.441076,0.19791 z M 48.522958,240.13462 c -0.597971,-0.23717 -1.663734,-1.39894 -2.038525,-2.22215 -1.268791,-2.78684 0.660713,-6.36907 3.199551,-5.94013 0.394143,0.0666 0.846533,0.0257 1.076219,-0.0972 0.367387,-0.19662 0.387209,-0.30209 0.272129,-1.44802 -0.148062,-1.47433 0.100218,-2.46149 0.846916,-3.36737 0.96956,-1.17624 2.786205,-1.7094 4.109811,-1.20617 0.276924,0.10529 0.864217,0.52393 1.305095,0.93032 0.662928,0.61106 0.886008,0.7177 1.289552,0.61641 0.72251,-0.18133 0.894602,-0.38931 1.027201,-1.24138 0.355818,-2.28648 3.273554,-4.14291 5.667996,-3.6063 1.672442,0.3748 2.795385,1.21279 3.525231,2.63067 0.411266,0.79897 0.483459,1.17639 0.493678,2.5809 0.0066,0.9048 0.07852,1.7479 0.159847,1.87357 0.08133,0.12567 0.441508,0.22848 0.800388,0.22848 0.488986,0 0.829974,-0.16032 1.360642,-0.63975 0.562912,-0.50856 0.859458,-0.63975 1.446036,-0.63975 2.404039,0 3.929815,2.68862 3.008178,5.30082 -0.358989,1.01748 -0.347078,1.20661 0.10443,1.65812 0.262386,0.26239 0.585025,0.36917 1.051025,0.34786 1.168607,-0.0534 1.328012,-0.008 1.874592,0.53898 1.022852,1.02285 0.61793,2.78289 -0.797933,3.46829 -0.786777,0.38087 -0.921482,0.38418 -15.130616,0.37145 -7.885223,-0.007 -14.478373,-0.069 -14.651443,-0.13766 z m 7.624398,-3.25567 c 0.166277,-0.0638 0.494468,-0.55049 0.729312,-1.08151 0.722802,-1.63439 2.106613,-2.13156 3.767568,-1.35361 1.094657,0.51271 1.794214,0.36617 2.07592,-0.43486 0.416425,-1.1841 -0.948695,-2.17373 -3.155012,-2.2872 -1.613961,-0.083 -2.675344,0.266 -3.746856,1.23202 -1.99764,1.80097 -1.752589,4.72396 0.329068,3.92516 z m 52.705224,25.05859 c 1.17365,-0.34853 2.16509,-1.19537 2.66581,-2.27699 0.36003,-0.77771 0.38384,-1.1843 0.43696,-7.46048 0.0627,-7.40531 -0.0156,-8.18311 -0.94671,-9.40544 -0.93196,-1.22347 -1.90545,-1.66012 -3.89561,-1.74734 -2.71198,-0.11885 -4.19434,0.60434 -5.12554,2.50056 l -0.50718,1.03277 v 7.0373 c 0,5.51324 0.0546,7.19189 0.25201,7.75109 0.36133,1.02344 1.63343,2.22505 2.70368,2.55386 1.16684,0.35849 3.23567,0.36537 4.41658,0.0147 z m -2.87637,-3.05653 c -0.24164,-0.12418 -0.61178,-0.45784 -0.82254,-0.74146 -0.36577,-0.49224 -0.38573,-0.76391 -0.43885,-5.97548 -0.0596,-5.84387 0.0272,-6.65767 0.7912,-7.42167 0.55236,-0.55237 1.66689,-0.59224 2.31453,-0.0828 0.78254,0.61555 0.87985,1.40216 0.87985,7.11292 0,6.06105 -0.0956,6.6208 -1.21056,7.08665 -0.73845,0.30854 -0.94983,0.31159 -1.51363,0.0218 z m 44.41074,3.04415 c 1.36162,-0.40436 2.4123,-1.46767 2.81332,-2.84714 0.2588,-0.89023 0.29218,-1.97066 0.24554,-7.94664 -0.0524,-6.71482 -0.0657,-6.93814 -0.45448,-7.66479 -0.4485,-0.83815 -1.49432,-1.83108 -2.22452,-2.11203 -1.55045,-0.59655 -3.93008,-0.50218 -5.32865,0.21132 -0.91872,0.46869 -1.91518,1.66281 -2.17893,2.61112 -0.15126,0.54384 -0.19775,2.85774 -0.1587,7.89789 l 0.0552,7.1287 0.492,0.83689 c 0.52405,0.89141 1.54574,1.68046 2.55027,1.96956 0.97171,0.27966 3.10708,0.23639 4.18893,-0.0849 z m -2.9357,-3.04669 c -0.25133,-0.12558 -0.60079,-0.51508 -0.77656,-0.86554 -0.28353,-0.5653 -0.31963,-1.27223 -0.31988,-6.26379 -2.3e-4,-4.60593 0.0498,-5.74645 0.27584,-6.28742 0.36354,-0.87007 0.7566,-1.14365 1.64314,-1.14365 0.88654,0 1.2796,0.27358 1.64315,1.14365 0.22586,0.54057 0.27611,1.67767 0.27611,6.2476 0,6.31655 -0.0579,6.66826 -1.17566,7.13527 -0.77565,0.32408 -0.97664,0.32843 -1.56614,0.0339 z m 44.38501,2.70182 c 1.68185,-0.91636 2.22788,-2.10138 2.22168,-4.82161 -0.006,-2.79885 -0.4499,-3.54754 -3.7082,-6.25988 -2.80665,-2.33638 -3.14231,-2.78509 -3.14231,-4.20074 0,-0.91401 0.0706,-1.13999 0.48605,-1.55542 0.37459,-0.3746 0.66521,-0.48605 1.26737,-0.48605 1.10935,0 1.74595,0.73264 1.91201,2.20047 l 0.12112,1.07056 1.53321,-0.0112 1.53321,-0.0112 7.7e-4,-1.29203 c 0.001,-1.95654 -0.38059,-3.00223 -1.4457,-3.95986 -1.06091,-0.95385 -1.89427,-1.23705 -3.64021,-1.23705 -1.78457,0 -3.09501,0.50912 -4.02247,1.56277 -0.94492,1.07349 -1.18866,2.01867 -1.09159,4.23293 0.12236,2.7909 0.58338,3.4631 4.82796,7.03946 1.86286,1.5696 2.17037,2.08979 2.03965,3.45026 -0.10816,1.12557 -0.54377,1.62182 -1.52959,1.7425 -1.43459,0.17563 -2.26238,-0.85168 -2.26495,-2.81089 l -0.001,-0.77685 h -1.57812 -1.57813 l 0.0871,1.78217 c 0.10107,2.06701 0.46277,2.96733 1.55582,3.87259 0.99805,0.82659 2.05812,1.11319 3.88953,1.05155 1.30991,-0.0441 1.70637,-0.13547 2.52677,-0.58247 z m -99.038341,-3.17313 v -3.62962 l 1.4166,-0.10834 c 1.82165,-0.13933 2.62359,-0.40828 3.52952,-1.18372 1.41879,-1.21444 1.54282,-1.6658 1.54282,-5.61469 0,-3.36545 -0.0142,-3.49817 -0.45697,-4.28738 -1.01153,-1.8028 -2.69274,-2.38435 -6.892915,-2.38435 h -2.794796 v 10.41886 10.41886 h 1.82787 1.827871 z m 0,-10.53637 v -3.38156 h 0.886659 c 1.094684,0 1.988131,0.29654 2.224581,0.73836 0.0984,0.18388 0.17893,1.43583 0.17893,2.78211 0,2.32229 -0.0217,2.46815 -0.42305,2.84521 -0.347272,0.32624 -0.64197,0.39744 -1.645088,0.39744 h -1.222032 z m 24.900871,10.55595 0.0496,-3.61004 1.46392,-0.10905 c 2.34183,-0.17443 3.84874,-1.01463 4.72189,-2.63276 0.36361,-0.67386 0.39453,-0.9961 0.39453,-4.11271 0,-3.1166 -0.0309,-3.43885 -0.39453,-4.11271 -0.52984,-0.98189 -1.24746,-1.63295 -2.34728,-2.12952 -0.81144,-0.36638 -1.27781,-0.42101 -4.15841,-0.48715 l -3.24446,-0.0745 v 10.43924 10.43924 h 1.73261 1.73261 z m -2.6e-4,-10.51025 0.0498,-3.33587 1.23459,0.0146 c 1.03165,0.0122 1.30957,0.085 1.69078,0.44314 0.44229,0.4155 0.45619,0.50307 0.45619,2.87264 0,2.35122 -0.017,2.46111 -0.44866,2.89273 -0.39171,0.39172 -0.61262,0.44866 -1.7406,0.44866 h -1.29194 z m 11.85196,7.58566 c 0.007,-3.75222 0.0784,-6.37898 0.16733,-6.16906 0.0852,0.20106 0.66349,2.21629 1.28503,4.47828 0.62154,2.26199 1.23307,4.48285 1.35896,4.93525 l 0.2289,0.82254 0.91798,0.0544 0.91798,0.0544 0.36331,-1.33395 c 1.48639,-5.4574 2.53061,-9.10192 2.60798,-9.10225 0.0503,-2.1e-4 0.0669,2.87857 0.0369,6.39728 l -0.0545,6.39766 h 1.6539 1.6539 v -10.41886 -10.41886 h -2.16044 -2.16043 l -1.35822,5.84765 c -1.18515,5.10256 -1.63239,6.62801 -1.63239,5.56777 0,-0.23956 -2.01075,-8.62537 -2.57284,-10.72997 l -0.18306,-0.68545 h -2.1864 -2.1864 v 10.41886 10.41886 h 1.64508 1.64509 z m 34.97709,-3.56598 c 1.09802,-5.55354 2.03297,-10.2413 2.07767,-10.41723 0.0734,-0.28869 -0.0964,-0.31988 -1.7413,-0.31988 h -1.82257 l -1.16742,7.12117 c -0.64208,3.91664 -1.21816,7.06287 -1.28017,6.9916 -0.062,-0.0713 -0.20016,-0.66421 -0.30699,-1.31768 -0.5638,-3.4486 -2.08123,-12.19875 -2.16343,-12.47521 -0.0821,-0.2761 -0.33754,-0.31988 -1.86629,-0.31988 h -1.77119 l 2.04798,10.19038 c 1.12639,5.60471 2.05235,10.29319 2.05769,10.41886 0.007,0.16812 0.52881,0.22805 1.97466,0.22685 l 1.96496,-0.002 z m 7.05156,-0.31825 v -10.41886 h -1.73648 -1.73647 v 10.41886 10.41886 h 1.73647 1.73648 z m 10.60165,8.77378 v -1.64508 h -2.37623 -2.37623 v -2.74181 -2.7418 h 2.19344 2.19345 v -1.64509 -1.64508 h -2.19833 -2.19834 l 0.0506,-2.67145 0.0506,-2.67145 2.33054,0.0302 2.33053,0.0302 v -1.74568 -1.74569 h -4.11271 -4.11271 v 10.41886 10.41886 h 4.11271 4.11271 z"
       id="path1" /></g></svg>
